<?xml version="1.0" encoding="UTF-8"?>
<svg xmlns="http://www.w3.org/2000/svg" xmlns:xlink="http://www.w3.org/1999/xlink" width="24pt" height="24pt" viewBox="0 0 24 24" version="1.1">
<g id="surface1">
<path style=" stroke:none;fill-rule:nonzero;fill:rgb(23.921569%,25.490196%,34.901961%);fill-opacity:1;" d="M 23.992188 12.042969 C 23.992188 14.09375 23.476562 16.027344 22.566406 17.71875 C 22.558594 17.730469 22.554688 17.742188 22.546875 17.753906 C 22.460938 17.910156 22.371094 18.070312 22.277344 18.222656 C 21.402344 19.675781 20.230469 20.925781 18.84375 21.890625 C 18.710938 21.984375 18.578125 22.070312 18.441406 22.160156 C 16.582031 23.347656 14.367188 24.039062 11.996094 24.039062 C 5.371094 24.039062 0 18.667969 0 12.042969 C 0 5.417969 5.371094 0.046875 11.996094 0.046875 C 13.878906 0.046875 15.664062 0.480469 17.25 1.257812 C 17.636719 1.445312 18.007812 1.652344 18.367188 1.875 C 20.367188 3.132812 21.972656 4.964844 22.945312 7.140625 C 23.359375 8.058594 23.660156 9.039062 23.828125 10.0625 C 23.933594 10.707031 23.992188 11.367188 23.992188 12.042969 Z M 23.992188 12.042969 "/>
<path style=" stroke:none;fill-rule:nonzero;fill:rgb(94.901961%,94.117647%,92.54902%);fill-opacity:1;" d="M 0.0273438 10.039062 L 0.59375 11.488281 C 0.671875 11.691406 0.898438 11.800781 1.105469 11.734375 L 2.316406 11.355469 C 2.488281 11.300781 2.675781 11.363281 2.78125 11.507812 C 3.109375 11.964844 3.5 12.363281 3.925781 12.703125 C 4.070312 12.816406 4.125 13.007812 4.0625 13.175781 L 3.628906 14.367188 C 3.554688 14.574219 3.652344 14.804688 3.855469 14.890625 L 5.277344 15.519531 C 5.480469 15.605469 5.714844 15.523438 5.816406 15.328125 L 6.402344 14.203125 C 6.484375 14.042969 6.664062 13.957031 6.84375 13.984375 C 7.382812 14.070312 7.941406 14.085938 8.496094 14.023438 C 8.675781 14 8.851562 14.09375 8.925781 14.257812 L 9.464844 15.40625 C 9.554688 15.605469 9.789062 15.699219 9.992188 15.621094 L 11.441406 15.054688 C 11.644531 14.976562 11.753906 14.75 11.6875 14.542969 L 11.308594 13.332031 C 11.253906 13.160156 11.316406 12.972656 11.464844 12.867188 C 11.917969 12.535156 12.316406 12.148438 12.65625 11.722656 C 12.769531 11.578125 12.960938 11.523438 13.128906 11.585938 L 14.320312 12.019531 C 14.527344 12.09375 14.757812 11.996094 14.847656 11.792969 L 15.472656 10.371094 C 15.558594 10.167969 15.476562 9.933594 15.28125 9.832031 L 14.15625 9.246094 C 13.996094 9.164062 13.910156 8.984375 13.9375 8.808594 C 14.023438 8.265625 14.039062 7.707031 13.976562 7.152344 C 13.957031 6.972656 14.050781 6.796875 14.210938 6.722656 L 15.359375 6.183594 C 15.558594 6.09375 15.652344 5.859375 15.574219 5.65625 L 15.007812 4.207031 C 14.929688 4 14.703125 3.894531 14.492188 3.960938 L 13.285156 4.339844 C 13.113281 4.394531 12.929688 4.332031 12.820312 4.1875 C 12.492188 3.730469 12.105469 3.332031 11.675781 2.992188 C 11.53125 2.878906 11.476562 2.6875 11.539062 2.519531 L 11.972656 1.328125 C 12.046875 1.121094 11.949219 0.890625 11.746094 0.800781 L 11.355469 0.632812 L 10.324219 0.175781 C 10.121094 0.0859375 9.886719 0.171875 9.785156 0.367188 L 9.199219 1.492188 C 9.117188 1.652344 8.9375 1.738281 8.757812 1.710938 C 8.21875 1.625 7.660156 1.609375 7.105469 1.671875 C 6.925781 1.691406 6.75 1.597656 6.675781 1.433594 L 6.324219 0.679688 L 6.140625 0.289062 C 6.046875 0.0898438 5.8125 -0.00390625 5.609375 0.0742188 L 4.160156 0.640625 C 3.957031 0.71875 3.847656 0.945312 3.914062 1.15625 L 4.292969 2.363281 C 4.347656 2.535156 4.285156 2.71875 4.140625 2.828125 C 3.683594 3.15625 3.285156 3.542969 2.945312 3.972656 C 2.832031 4.117188 2.640625 4.171875 2.472656 4.109375 L 1.28125 3.675781 C 1.074219 3.601562 0.84375 3.699219 0.753906 3.902344 L 0.128906 5.324219 C 0.0429688 5.527344 0.125 5.761719 0.320312 5.863281 L 1.445312 6.449219 C 1.605469 6.53125 1.691406 6.710938 1.664062 6.886719 C 1.578125 7.429688 1.5625 7.988281 1.625 8.542969 C 1.644531 8.722656 1.550781 8.898438 1.390625 8.972656 L 0.242188 9.507812 C 0.0429688 9.601562 -0.0507812 9.832031 0.0273438 10.039062 Z M 6.949219 5.277344 C 8.257812 4.84375 9.707031 5.480469 10.269531 6.734375 C 10.929688 8.203125 10.175781 9.914062 8.648438 10.417969 C 7.34375 10.851562 5.894531 10.21875 5.332031 8.960938 C 4.671875 7.492188 5.425781 5.785156 6.949219 5.277344 Z M 6.949219 5.277344 "/>
<path style=" stroke:none;fill-rule:nonzero;fill:rgb(84.705882%,83.529412%,81.568627%);fill-opacity:1;" d="M 2.648438 7.847656 C 2.648438 10.695312 4.953125 13 7.800781 13 C 10.648438 13 12.953125 10.695312 12.953125 7.847656 C 12.953125 5 10.648438 2.695312 7.800781 2.695312 C 4.953125 2.695312 2.648438 5 2.648438 7.847656 Z M 6.949219 5.277344 C 8.257812 4.84375 9.707031 5.480469 10.269531 6.734375 C 10.929688 8.203125 10.175781 9.914062 8.648438 10.417969 C 7.34375 10.851562 5.894531 10.21875 5.332031 8.960938 C 4.671875 7.492188 5.425781 5.785156 6.949219 5.277344 Z M 6.949219 5.277344 "/>
<path style=" stroke:none;fill-rule:nonzero;fill:rgb(84.705882%,83.529412%,81.568627%);fill-opacity:1;" d="M 22.945312 7.140625 C 21.972656 4.964844 20.367188 3.132812 18.367188 1.875 C 18.007812 1.652344 17.636719 1.445312 17.25 1.257812 C 17.195312 1.308594 17.121094 1.34375 17.042969 1.359375 L 15.792969 1.5625 C 15.574219 1.597656 15.421875 1.792969 15.445312 2.015625 L 15.59375 3.5625 C 15.613281 3.78125 15.800781 3.945312 16.019531 3.9375 L 17.285156 3.902344 C 17.46875 3.894531 17.628906 4.007812 17.691406 4.175781 C 17.886719 4.703125 18.148438 5.195312 18.46875 5.640625 C 18.574219 5.785156 18.578125 5.984375 18.472656 6.128906 L 17.730469 7.160156 C 17.605469 7.335938 17.636719 7.585938 17.804688 7.722656 L 19.007812 8.714844 C 19.175781 8.855469 19.425781 8.839844 19.574219 8.679688 L 20.445312 7.753906 C 20.566406 7.625 20.761719 7.589844 20.925781 7.664062 C 21.425781 7.894531 21.957031 8.058594 22.511719 8.148438 C 22.6875 8.179688 22.828125 8.316406 22.859375 8.496094 L 23.0625 9.746094 C 23.097656 9.960938 23.296875 10.113281 23.515625 10.09375 L 23.828125 10.0625 C 23.660156 9.039062 23.359375 8.058594 22.945312 7.140625 Z M 22.945312 7.140625 "/>
<path style=" stroke:none;fill-rule:nonzero;fill:rgb(94.901961%,94.117647%,92.54902%);fill-opacity:1;" d="M 18.367188 1.875 C 18.300781 4.179688 19.796875 6.320312 22.117188 6.976562 C 22.394531 7.054688 22.671875 7.109375 22.945312 7.140625 C 21.972656 4.964844 20.367188 3.132812 18.367188 1.875 Z M 18.367188 1.875 "/>
<path style=" stroke:none;fill-rule:nonzero;fill:rgb(84.705882%,83.529412%,81.568627%);fill-opacity:1;" d="M 10.476562 18.90625 L 10.582031 20.679688 C 10.597656 20.929688 10.804688 21.125 11.054688 21.125 L 12.5 21.132812 C 12.707031 21.132812 12.886719 21.269531 12.953125 21.464844 C 13.152344 22.070312 13.433594 22.640625 13.78125 23.164062 C 13.894531 23.335938 13.890625 23.558594 13.761719 23.722656 L 13.601562 23.929688 C 14.292969 23.839844 14.964844 23.6875 15.613281 23.480469 C 16.652344 23.152344 17.632812 22.6875 18.53125 22.101562 C 17.507812 21.6875 16.738281 20.734375 16.609375 19.585938 C 16.40625 17.761719 17.816406 16.167969 19.652344 16.148438 C 20.871094 16.136719 21.957031 16.851562 22.464844 17.902344 C 22.984375 16.972656 23.386719 15.960938 23.648438 14.898438 C 23.855469 14.046875 23.972656 13.164062 23.988281 12.253906 L 23.414062 12.820312 C 23.269531 12.964844 23.046875 12.996094 22.859375 12.90625 C 22.300781 12.625 21.703125 12.414062 21.078125 12.289062 C 20.875 12.246094 20.71875 12.085938 20.691406 11.882812 L 20.574219 10.9375 L 20.511719 10.449219 C 20.476562 10.199219 20.257812 10.015625 20.007812 10.03125 L 18.238281 10.140625 C 17.988281 10.15625 17.792969 10.363281 17.792969 10.613281 L 17.785156 12.058594 C 17.78125 12.265625 17.648438 12.445312 17.453125 12.507812 C 16.84375 12.710938 16.277344 12.988281 15.753906 13.335938 C 15.582031 13.453125 15.359375 13.445312 15.195312 13.320312 L 14.050781 12.433594 C 13.855469 12.28125 13.570312 12.308594 13.40625 12.496094 L 12.230469 13.824219 C 12.0625 14.011719 12.070312 14.296875 12.246094 14.476562 L 13.261719 15.503906 C 13.410156 15.648438 13.441406 15.871094 13.347656 16.054688 C 13.066406 16.613281 12.855469 17.214844 12.730469 17.839844 C 12.691406 18.042969 12.527344 18.199219 12.324219 18.226562 L 10.890625 18.40625 C 10.640625 18.4375 10.460938 18.65625 10.476562 18.90625 Z M 10.476562 18.90625 "/>
<path style=" stroke:none;fill-rule:nonzero;fill:rgb(94.901961%,94.117647%,92.54902%);fill-opacity:1;" d="M 15.613281 23.480469 C 16.652344 23.152344 17.632812 22.6875 18.53125 22.101562 C 17.507812 21.6875 16.738281 20.734375 16.609375 19.585938 C 16.40625 17.761719 17.816406 16.167969 19.652344 16.148438 C 20.871094 16.136719 21.957031 16.851562 22.464844 17.902344 C 22.984375 16.972656 23.386719 15.960938 23.648438 14.898438 C 23.042969 14.34375 22.308594 13.90625 21.476562 13.640625 C 18.386719 12.648438 15.074219 14.347656 14.082031 17.441406 C 13.371094 19.652344 14.042969 21.976562 15.613281 23.480469 Z M 15.613281 23.480469 "/>
<path style=" stroke:none;fill-rule:nonzero;fill:rgb(94.901961%,94.117647%,92.54902%);fill-opacity:1;" d="M 0.78125 16.308594 C 0.976562 16.820312 1.207031 17.320312 1.46875 17.796875 C 1.566406 17.976562 1.667969 18.152344 1.777344 18.328125 C 1.890625 18.511719 2.011719 18.695312 2.132812 18.875 C 2.550781 19.476562 3.027344 20.039062 3.546875 20.558594 C 3.558594 20.5625 3.570312 20.566406 3.585938 20.570312 C 3.855469 20.679688 4.113281 20.828125 4.347656 21.023438 C 4.46875 21.125 4.582031 21.230469 4.683594 21.347656 C 4.785156 21.460938 4.878906 21.582031 4.957031 21.707031 C 4.976562 21.738281 4.996094 21.765625 5.011719 21.796875 C 5.78125 22.347656 6.613281 22.808594 7.5 23.167969 C 7.6875 23.242188 7.878906 23.316406 8.074219 23.382812 C 9.046875 23.71875 10.078125 23.933594 11.148438 24.007812 C 11.203125 23.925781 11.234375 23.828125 11.230469 23.722656 L 11.152344 22.039062 C 11.140625 21.800781 10.945312 21.613281 10.707031 21.609375 L 9.332031 21.582031 C 9.136719 21.578125 8.96875 21.449219 8.910156 21.261719 C 8.730469 20.695312 8.476562 20.148438 8.144531 19.636719 C 8.039062 19.472656 8.046875 19.257812 8.167969 19.105469 L 9.023438 18.03125 C 9.171875 17.84375 9.148438 17.574219 8.972656 17.414062 L 7.726562 16.28125 C 7.550781 16.121094 7.28125 16.125 7.109375 16.289062 L 6.121094 17.242188 C 5.976562 17.378906 5.765625 17.40625 5.59375 17.316406 C 5.054688 17.035156 4.484375 16.832031 3.90625 16.707031 C 3.710938 16.667969 3.566406 16.511719 3.542969 16.316406 L 3.390625 14.949219 C 3.363281 14.714844 3.15625 14.539062 2.917969 14.550781 L 2.457031 14.570312 L 1.234375 14.628906 C 0.996094 14.640625 0.804688 14.835938 0.804688 15.074219 Z M 0.78125 16.308594 "/>
<path style=" stroke:none;fill-rule:nonzero;fill:rgb(84.705882%,83.529412%,81.568627%);fill-opacity:1;" d="M 1.46875 17.796875 C 1.566406 17.976562 1.667969 18.152344 1.777344 18.328125 C 1.890625 18.511719 2.011719 18.695312 2.132812 18.875 C 2.550781 19.476562 3.027344 20.039062 3.546875 20.558594 C 3.558594 20.5625 3.570312 20.566406 3.585938 20.570312 C 3.855469 20.679688 4.113281 20.828125 4.347656 21.023438 C 4.46875 21.125 4.582031 21.230469 4.683594 21.347656 C 4.785156 21.460938 4.878906 21.582031 4.957031 21.707031 C 4.976562 21.738281 4.996094 21.765625 5.011719 21.796875 C 5.78125 22.347656 6.613281 22.808594 7.5 23.167969 C 7.6875 23.242188 7.878906 23.316406 8.074219 23.382812 C 8.089844 22.515625 7.902344 21.636719 7.488281 20.804688 C 6.351562 18.519531 3.859375 17.355469 1.46875 17.796875 Z M 1.46875 17.796875 "/>
<path style=" stroke:none;fill-rule:nonzero;fill:rgb(96.862745%,30.980392%,30.980392%);fill-opacity:1;" d="M 3.324219 7.691406 L 5.988281 5.03125 C 6.257812 4.761719 6.566406 4.539062 6.910156 4.378906 C 8.191406 3.761719 9.726562 4.023438 10.730469 5.03125 C 10.855469 5.15625 10.972656 5.289062 11.074219 5.429688 C 11.539062 6.066406 11.765625 6.855469 11.707031 7.648438 C 11.648438 8.453125 11.300781 9.207031 10.730469 9.777344 L 8.070312 12.4375 "/>
<path style=" stroke:none;fill-rule:nonzero;fill:rgb(86.666667%,18.823529%,20%);fill-opacity:1;" d="M 6.859375 6.109375 C 5.917969 7.050781 5.378906 8.691406 5.15625 9.523438 L 3.324219 7.691406 L 5.988281 5.03125 C 6.257812 4.761719 6.566406 4.539062 6.910156 4.378906 C 8.183594 3.765625 9.707031 4.023438 10.714844 5.011719 C 9.964844 4.300781 8.148438 4.824219 6.859375 6.109375 Z M 6.859375 6.109375 "/>
<path style=" stroke:none;fill-rule:nonzero;fill:rgb(96.470588%,79.215686%,68.235294%);fill-opacity:1;" d="M 5.492188 6.816406 C 5.199219 7.109375 4.746094 7.136719 4.421875 6.902344 C 4.386719 6.878906 4.351562 6.847656 4.320312 6.816406 C 3.996094 6.492188 3.996094 5.96875 4.320312 5.644531 C 4.644531 5.320312 5.167969 5.320312 5.492188 5.644531 C 5.523438 5.675781 5.550781 5.710938 5.578125 5.746094 C 5.8125 6.070312 5.78125 6.523438 5.492188 6.816406 Z M 5.492188 6.816406 "/>
<path style=" stroke:none;fill-rule:nonzero;fill:rgb(91.764706%,70.980392%,60%);fill-opacity:1;" d="M 5.492188 6.816406 C 5.199219 7.109375 4.746094 7.136719 4.421875 6.902344 C 4.554688 6.667969 4.722656 6.449219 4.921875 6.246094 C 5.121094 6.046875 5.34375 5.878906 5.578125 5.746094 C 5.8125 6.070312 5.78125 6.523438 5.492188 6.816406 Z M 5.492188 6.816406 "/>
<path style=" stroke:none;fill-rule:nonzero;fill:rgb(91.764706%,70.980392%,60%);fill-opacity:1;" d="M 5.203125 6.230469 C 5.203125 6.394531 5.070312 6.527344 4.90625 6.527344 C 4.742188 6.527344 4.609375 6.394531 4.609375 6.230469 C 4.609375 6.066406 4.742188 5.933594 4.90625 5.933594 C 5.070312 5.933594 5.203125 6.066406 5.203125 6.230469 Z M 5.203125 6.230469 "/>
<path style=" stroke:none;fill-rule:nonzero;fill:rgb(91.764706%,70.980392%,60%);fill-opacity:1;" d="M 9.46875 9.300781 L 7.457031 11.3125 C 6.847656 11.296875 6.246094 11.105469 5.730469 10.734375 C 5.726562 10.730469 5.722656 10.726562 5.714844 10.722656 C 5.589844 10.632812 5.46875 10.527344 5.351562 10.410156 C 4.148438 9.207031 4.148438 7.257812 5.351562 6.054688 L 6.179688 5.222656 C 6.289062 5.117188 6.398438 5.023438 6.515625 4.933594 C 6.660156 5.824219 7.441406 6.53125 8.363281 6.558594 C 8.667969 6.566406 8.953125 6.5 9.203125 6.375 C 8.910156 6.734375 8.738281 7.203125 8.753906 7.71875 C 8.773438 8.335938 9.046875 8.898438 9.46875 9.300781 Z M 9.46875 9.300781 "/>
<path style=" stroke:none;fill-rule:nonzero;fill:rgb(96.470588%,79.215686%,68.235294%);fill-opacity:1;" d="M 9.46875 9.300781 L 7.457031 11.3125 C 6.847656 11.296875 6.246094 11.105469 5.730469 10.734375 C 5.726562 10.730469 5.722656 10.726562 5.714844 10.722656 C 4.835938 9.519531 4.941406 7.820312 6.03125 6.734375 L 6.859375 5.902344 C 6.882812 5.882812 6.902344 5.859375 6.925781 5.839844 C 7.269531 6.261719 7.789062 6.542969 8.363281 6.558594 C 8.667969 6.566406 8.953125 6.5 9.203125 6.375 C 8.910156 6.734375 8.738281 7.203125 8.753906 7.71875 C 8.773438 8.335938 9.046875 8.898438 9.46875 9.300781 Z M 9.46875 9.300781 "/>
<path style=" stroke:none;fill-rule:nonzero;fill:rgb(91.764706%,70.980392%,60%);fill-opacity:1;" d="M 8.882812 9.21875 C 9.082031 9.019531 9.082031 8.695312 8.882812 8.496094 C 8.683594 8.296875 8.359375 8.296875 8.160156 8.496094 "/>
<path style=" stroke:none;fill-rule:nonzero;fill:rgb(91.764706%,70.980392%,60%);fill-opacity:1;" d="M 7.269531 7.601562 C 7.46875 7.402344 7.46875 7.078125 7.269531 6.878906 C 7.066406 6.679688 6.742188 6.679688 6.542969 6.878906 "/>
<path style=" stroke:none;fill-rule:nonzero;fill:rgb(23.921569%,25.490196%,34.901961%);fill-opacity:1;" d="M 7.101562 7.394531 C 7.101562 7.589844 6.945312 7.746094 6.75 7.746094 C 6.558594 7.746094 6.402344 7.589844 6.402344 7.394531 C 6.402344 7.203125 6.558594 7.046875 6.75 7.046875 C 6.945312 7.046875 7.101562 7.203125 7.101562 7.394531 Z M 7.101562 7.394531 "/>
<path style=" stroke:none;fill-rule:nonzero;fill:rgb(23.921569%,25.490196%,34.901961%);fill-opacity:1;" d="M 8.71875 9.011719 C 8.71875 9.203125 8.5625 9.359375 8.367188 9.359375 C 8.175781 9.359375 8.019531 9.203125 8.019531 9.011719 C 8.019531 8.816406 8.175781 8.660156 8.367188 8.660156 C 8.5625 8.660156 8.71875 8.816406 8.71875 9.011719 Z M 8.71875 9.011719 "/>
<path style=" stroke:none;fill-rule:nonzero;fill:rgb(91.764706%,70.980392%,60%);fill-opacity:1;" d="M 7.183594 9.074219 L 6.691406 8.578125 C 6.632812 8.519531 6.632812 8.421875 6.691406 8.363281 C 6.75 8.304688 6.84375 8.304688 6.902344 8.363281 L 7.398438 8.859375 C 7.457031 8.917969 7.457031 9.011719 7.398438 9.074219 C 7.339844 9.132812 7.242188 9.132812 7.183594 9.074219 Z M 7.183594 9.074219 "/>
<path style=" stroke:none;fill-rule:nonzero;fill:rgb(91.764706%,70.980392%,60%);fill-opacity:1;" d="M 6.261719 9.5 C 6.082031 9.316406 5.945312 9.089844 5.871094 8.832031 C 5.847656 8.757812 5.890625 8.683594 5.960938 8.660156 C 6.035156 8.640625 6.109375 8.683594 6.132812 8.753906 C 6.253906 9.179688 6.582031 9.507812 7.007812 9.628906 C 7.082031 9.652344 7.121094 9.726562 7.101562 9.800781 C 7.082031 9.871094 7.003906 9.914062 6.929688 9.894531 C 6.671875 9.820312 6.445312 9.683594 6.261719 9.5 Z M 6.261719 9.5 "/>
<path style=" stroke:none;fill-rule:nonzero;fill:rgb(100%,100%,100%);fill-opacity:1;" d="M 7.035156 7.441406 C 7.035156 7.523438 6.96875 7.59375 6.886719 7.59375 C 6.804688 7.59375 6.738281 7.523438 6.738281 7.441406 C 6.738281 7.359375 6.804688 7.292969 6.886719 7.292969 C 6.96875 7.292969 7.035156 7.359375 7.035156 7.441406 Z M 7.035156 7.441406 "/>
<path style=" stroke:none;fill-rule:nonzero;fill:rgb(100%,100%,100%);fill-opacity:1;" d="M 8.664062 9.070312 C 8.664062 9.152344 8.597656 9.21875 8.515625 9.21875 C 8.433594 9.21875 8.363281 9.152344 8.363281 9.070312 C 8.363281 8.988281 8.433594 8.921875 8.515625 8.921875 C 8.597656 8.921875 8.664062 8.988281 8.664062 9.070312 Z M 8.664062 9.070312 "/>
<path style=" stroke:none;fill-rule:nonzero;fill:rgb(91.764706%,70.980392%,60%);fill-opacity:1;" d="M 8.554688 10.015625 C 8.554688 10.226562 8.382812 10.398438 8.167969 10.398438 C 7.957031 10.398438 7.785156 10.226562 7.785156 10.015625 C 7.785156 9.804688 7.957031 9.632812 8.167969 9.632812 C 8.382812 9.632812 8.554688 9.804688 8.554688 10.015625 Z M 8.554688 10.015625 "/>
<path style=" stroke:none;fill-rule:nonzero;fill:rgb(91.764706%,70.980392%,60%);fill-opacity:1;" d="M 6.128906 7.59375 C 6.128906 7.804688 5.957031 7.976562 5.746094 7.976562 C 5.535156 7.976562 5.363281 7.804688 5.363281 7.59375 C 5.363281 7.382812 5.535156 7.210938 5.746094 7.210938 C 5.957031 7.210938 6.128906 7.382812 6.128906 7.59375 Z M 6.128906 7.59375 "/>
<path style=" stroke:none;fill-rule:nonzero;fill:rgb(96.470588%,79.215686%,68.235294%);fill-opacity:1;" d="M 17.042969 19.699219 C 17.042969 20.113281 16.742188 20.453125 16.347656 20.515625 C 16.304688 20.523438 16.261719 20.527344 16.214844 20.527344 C 15.757812 20.527344 15.386719 20.15625 15.386719 19.699219 C 15.386719 19.242188 15.757812 18.871094 16.214844 18.871094 C 16.261719 18.871094 16.304688 18.875 16.347656 18.882812 C 16.742188 18.945312 17.042969 19.289062 17.042969 19.699219 Z M 17.042969 19.699219 "/>
<path style=" stroke:none;fill-rule:nonzero;fill:rgb(91.764706%,70.980392%,60%);fill-opacity:1;" d="M 17.042969 19.699219 C 17.042969 20.113281 16.742188 20.453125 16.347656 20.515625 C 16.277344 20.257812 16.238281 19.984375 16.238281 19.699219 C 16.238281 19.417969 16.277344 19.144531 16.347656 18.882812 C 16.742188 18.945312 17.042969 19.289062 17.042969 19.699219 Z M 17.042969 19.699219 "/>
<path style=" stroke:none;fill-rule:nonzero;fill:rgb(91.764706%,70.980392%,60%);fill-opacity:1;" d="M 16.511719 19.699219 C 16.511719 19.863281 16.378906 19.996094 16.214844 19.996094 C 16.050781 19.996094 15.917969 19.863281 15.917969 19.699219 C 15.917969 19.535156 16.050781 19.402344 16.214844 19.402344 C 16.378906 19.402344 16.511719 19.535156 16.511719 19.699219 Z M 16.511719 19.699219 "/>
<path style=" stroke:none;fill-rule:nonzero;fill:rgb(91.764706%,70.980392%,60%);fill-opacity:1;" d="M 22.546875 17.753906 C 21.652344 19.40625 20.378906 20.824219 18.84375 21.890625 C 18.710938 21.984375 18.578125 22.070312 18.441406 22.160156 C 17.253906 21.730469 16.40625 20.59375 16.40625 19.257812 L 16.40625 18.085938 C 16.40625 17.730469 16.464844 17.382812 16.578125 17.066406 C 17 15.867188 18.140625 15.007812 19.484375 15.007812 C 19.648438 15.007812 19.808594 15.019531 19.964844 15.042969 C 21.328125 15.257812 22.398438 16.367188 22.546875 17.753906 Z M 22.546875 17.753906 "/>
<path style=" stroke:none;fill-rule:nonzero;fill:rgb(96.470588%,79.215686%,68.235294%);fill-opacity:1;" d="M 22.546875 17.753906 C 21.652344 19.40625 20.378906 20.824219 18.84375 21.890625 C 17.957031 21.351562 17.363281 20.375 17.363281 19.257812 L 17.363281 18.085938 C 17.363281 16.546875 18.492188 15.273438 19.964844 15.042969 C 21.328125 15.257812 22.398438 16.367188 22.546875 17.753906 Z M 22.546875 17.753906 "/>
<path style=" stroke:none;fill-rule:nonzero;fill:rgb(23.921569%,25.490196%,34.901961%);fill-opacity:1;" d="M 18.828125 19.082031 C 18.828125 19.273438 18.671875 19.429688 18.480469 19.429688 C 18.285156 19.429688 18.128906 19.273438 18.128906 19.082031 C 18.128906 18.886719 18.285156 18.730469 18.480469 18.730469 C 18.671875 18.730469 18.828125 18.886719 18.828125 19.082031 Z M 18.828125 19.082031 "/>
<path style=" stroke:none;fill-rule:nonzero;fill:rgb(23.921569%,25.490196%,34.901961%);fill-opacity:1;" d="M 20.839844 19.082031 C 20.839844 19.273438 20.683594 19.429688 20.492188 19.429688 C 20.296875 19.429688 20.140625 19.273438 20.140625 19.082031 C 20.140625 18.886719 20.296875 18.730469 20.492188 18.730469 C 20.683594 18.730469 20.839844 18.886719 20.839844 19.082031 Z M 20.839844 19.082031 "/>
<path style=" stroke:none;fill-rule:nonzero;fill:rgb(100%,100%,100%);fill-opacity:1;" d="M 18.757812 19.019531 C 18.757812 19.101562 18.691406 19.167969 18.609375 19.167969 C 18.527344 19.167969 18.457031 19.101562 18.457031 19.019531 C 18.457031 18.9375 18.527344 18.871094 18.609375 18.871094 C 18.691406 18.871094 18.757812 18.9375 18.757812 19.019531 Z M 18.757812 19.019531 "/>
<path style=" stroke:none;fill-rule:nonzero;fill:rgb(100%,100%,100%);fill-opacity:1;" d="M 20.785156 19.019531 C 20.785156 19.101562 20.71875 19.167969 20.636719 19.167969 C 20.554688 19.167969 20.484375 19.101562 20.484375 19.019531 C 20.484375 18.9375 20.554688 18.871094 20.636719 18.871094 C 20.71875 18.871094 20.785156 18.9375 20.785156 19.019531 Z M 20.785156 19.019531 "/>
<path style=" stroke:none;fill-rule:nonzero;fill:rgb(91.764706%,70.980392%,60%);fill-opacity:1;" d="M 19.835938 19.824219 L 19.136719 19.824219 C 19.050781 19.824219 18.984375 19.753906 18.984375 19.671875 C 18.984375 19.589844 19.050781 19.523438 19.136719 19.523438 L 19.835938 19.523438 C 19.917969 19.523438 19.984375 19.589844 19.984375 19.671875 C 19.984375 19.753906 19.917969 19.824219 19.835938 19.824219 Z M 19.835938 19.824219 "/>
<path style=" stroke:none;fill-rule:nonzero;fill:rgb(91.764706%,70.980392%,60%);fill-opacity:1;" d="M 19.484375 20.777344 C 19.226562 20.777344 18.96875 20.710938 18.734375 20.582031 C 18.667969 20.546875 18.644531 20.464844 18.679688 20.398438 C 18.714844 20.332031 18.800781 20.304688 18.867188 20.34375 C 19.253906 20.554688 19.714844 20.554688 20.105469 20.34375 C 20.171875 20.304688 20.253906 20.332031 20.289062 20.398438 C 20.328125 20.464844 20.300781 20.546875 20.234375 20.582031 C 20 20.710938 19.742188 20.777344 19.484375 20.777344 Z M 19.484375 20.777344 "/>
<path style=" stroke:none;fill-rule:nonzero;fill:rgb(63.921569%,32.941176%,9.411765%);fill-opacity:1;" d="M 22.566406 17.023438 L 22.566406 17.71875 C 22.558594 17.730469 22.554688 17.742188 22.546875 17.753906 C 22.460938 17.910156 22.371094 18.070312 22.277344 18.222656 L 21.992188 18.222656 L 21.992188 17.285156 L 17.855469 16.515625 L 16.976562 16.351562 L 16.976562 18.222656 L 16.40625 18.222656 L 16.40625 17.023438 C 16.40625 15.652344 17.515625 14.542969 18.882812 14.542969 L 20.085938 14.542969 C 20.117188 14.542969 20.152344 14.542969 20.183594 14.546875 C 21.507812 14.597656 22.566406 15.683594 22.566406 17.023438 Z M 22.566406 17.023438 "/>
<path style=" stroke:none;fill-rule:nonzero;fill:rgb(80%,47.843137%,23.137255%);fill-opacity:1;" d="M 22.566406 17.023438 L 22.566406 17.71875 C 22.558594 17.730469 22.554688 17.742188 22.546875 17.753906 C 22.460938 17.910156 22.371094 18.070312 22.277344 18.222656 L 21.992188 18.222656 L 21.992188 17.285156 L 17.855469 16.515625 C 18.082031 15.417969 19.03125 14.589844 20.183594 14.546875 C 21.507812 14.597656 22.566406 15.683594 22.566406 17.023438 Z M 22.566406 17.023438 "/>
</g>
</svg>
